<?xml version="1.0" encoding="UTF-8" standalone="no"?>
<svg width="210mm"
     height="297mm"
     viewBox="0 0 210 297"
     version="1.1"
     id="svg5"
     sodipodi:docname="Pfau.svg"
     inkscape:version="1.2.2 (b0a84865, 2022-12-01)"
     xmlns:inkscape="http://www.inkscape.org/namespaces/inkscape"
     xmlns:sodipodi="http://sodipodi.sourceforge.net/DTD/sodipodi-0.dtd"
     xmlns="http://www.w3.org/2000/svg"
     xmlns:svg="http://www.w3.org/2000/svg">
    <sodipodi:namedview id="namedview7"
                        pagecolor="#ffffff"
                        bordercolor="#666666"
                        borderopacity="1.0"
                        inkscape:pageshadow="2"
                        inkscape:pageopacity="0.0"
                        inkscape:pagecheckerboard="0"
                        inkscape:document-units="mm"
                        showgrid="false"
                        showguides="false"
                        inkscape:zoom="0.73940797"
                        inkscape:cx="-166.3493"
                        inkscape:cy="363.80457"
                        inkscape:window-width="1309"
                        inkscape:window-height="456"
                        inkscape:window-x="0"
                        inkscape:window-y="38"
                        inkscape:window-maximized="0"
                        inkscape:current-layer="layer3"
                        inkscape:showpageshadow="0"
                        inkscape:deskcolor="#d1d1d1" />
    <defs id="defs2" />
    <g inkscape:groupmode="layer"
       id="layer3"
       inkscape:label="Layer 3"
       style="display:inline">
        <path style="fill:#f0c195;fill-opacity:1;stroke:none;stroke-width:0.467704px;stroke-linecap:butt;stroke-linejoin:miter;stroke-opacity:1"
              d="m 78.460779,205.79426 -58.519963,0.14849 c 0,0 -17.5146366,0.40132 -15.3789726,-9.62231 1.6942968,-7.9521 17.3580316,-3.87033 17.3580316,-3.87033 l 56.221693,9.46134 z"
              id="path2619"
              sodipodi:nodetypes="ccsccc" />
        <path style="fill:#f0c195;fill-opacity:1;stroke:none;stroke-width:0.467704px;stroke-linecap:butt;stroke-linejoin:miter;stroke-opacity:1"
              d="m 83.310434,200.91586 -71.120472,-12.7554 c 0,0 -14.942477,-3.00506 -9.0233855,-12.78371 4.4586859,-7.36598 22.6260505,1.25153 22.6260505,1.25153 l 57.425921,22.31375 z"
              id="path2621"
              sodipodi:nodetypes="ccsccc" />
        <path style="fill:#e3b68d;fill-opacity:1;stroke:none;stroke-width:0.467704px;stroke-linecap:butt;stroke-linejoin:miter;stroke-opacity:1"
              d="M 79.827217,196.08451 12.115357,168.6771 c 0,0 -13.6727742,-5.82761 -5.8753239,-15.51859 5.1772879,-6.43454 38.8270499,17.03074 38.8270499,17.03074 l 35.008578,23.27318 z"
              id="path2623"
              sodipodi:nodetypes="ccsccc" />
        <path style="fill:#e3b68d;fill-opacity:1;stroke:none;stroke-width:0.467704px;stroke-linecap:butt;stroke-linejoin:miter;stroke-opacity:1"
              d="M 83.234164,193.22435 15.664717,146.23232 c 0,0 -10.3944228,-8.75262 -0.210177,-14.73614 10.184251,-5.9835 36.102947,25.38686 36.102947,25.38686 l 34.170709,32.31379 z"
              id="path2627" />
        <path style="fill:#c9a27d;fill-opacity:1;stroke:none;stroke-width:0.467704px;stroke-linecap:butt;stroke-linejoin:miter;stroke-opacity:1"
              d="M 81.605218,182.71232 27.632325,128.00918 c 0,0 -9.764237,-10.31146 -0.04513,-17.93351 9.719118,-7.62205 32.800561,32.05586 32.800561,32.05586 l 26.11401,39.75535 z"
              id="path2629" />
        <path style="fill:#c9a27d;fill-opacity:1;stroke:none;stroke-width:0.467704px;stroke-linecap:butt;stroke-linejoin:miter;stroke-opacity:1"
              d="m 85.675531,176.20799 c 0.0068,-1.63311 -40.841033,-66.58693 -40.841033,-66.58693 0,0 -8.06008,-14.247002 2.754307,-19.512564 10.814374,-5.26558 22.299121,29.414694 22.299121,29.414694 l 19.846873,50.37895 z"
              id="path2633" />
        <path style="fill:#a38365;fill-opacity:1;stroke:none;stroke-width:0.467704px;stroke-linecap:butt;stroke-linejoin:miter;stroke-opacity:1"
              d="M 93.060187,119.12533 87.114376,86.04476 c 0,0 -3.288632,-20.092779 -17.491142,-10.029647 -10.830709,7.674059 4.508111,41.814137 4.508111,41.814137 l 14.974855,45.20862 18.86765,-32.17083 -4.91749,-12.86824 z"
              id="path2637"
              sodipodi:nodetypes="ccsccccc" />
        <path style="fill:#63503e;fill-opacity:1;stroke:none;stroke-width:0.467704px;stroke-linecap:butt;stroke-linejoin:miter;stroke-opacity:1"
              d="M 95.007558,115.11976 94.368816,71.094294 c 0,0 -2.180711,-9.978084 11.651224,-9.448172 9.54515,0.365682 8.68378,14.76735 8.68378,14.76735 l -1.20377,48.627748 z"
              id="path2639"
              sodipodi:nodetypes="ccsccc" />
        <path style="fill:#a38365;fill-opacity:1;stroke:none;stroke-width:0.467704px;stroke-linecap:butt;stroke-linejoin:miter;stroke-opacity:1"
              d="m 115.5659,120.64427 7.25849,-36.164211 c 0,0 0.97511,-15.283401 14.9549,-9.542765 10.09786,4.146563 4.36347,20.437047 4.36347,20.437047 l -25.03919,72.800379 -1.51763,-48.16695 z"
              id="path2641"
              sodipodi:nodetypes="ccscccc" />
        <path style="fill:#c9a27d;fill-opacity:1;stroke:none;stroke-width:0.467704px;stroke-linecap:butt;stroke-linejoin:miter;stroke-opacity:1"
              d="M 117.10357,168.17472 145.94942,100.849 c 0,0 5.37784,-15.834034 16.35312,-9.185598 8.69466,5.266924 -0.51452,22.763898 -0.51452,22.763898 l -40.62984,66.86602 z"
              id="path2643"
              sodipodi:nodetypes="ccsccc" />
        <path style="fill:#c9a27d;fill-opacity:1;stroke:none;stroke-width:0.467704px;stroke-linecap:butt;stroke-linejoin:miter;stroke-opacity:1"
              d="m 121.15818,181.29332 40.09405,-57.57913 c 0,0 9.74481,-18.5075 22.26727,-12.47724 12.52244,6.03025 -18.09758,33.23056 -18.09758,33.23056 l -46.35369,48.04621 z"
              id="path2645" />
        <path style="fill:#e3b68d;fill-opacity:1;stroke:none;stroke-width:0.467704px;stroke-linecap:butt;stroke-linejoin:miter;stroke-opacity:1"
              d="m 123.5959,186.98693 57.76534,-53.16089 c 0,0 11.42648,-10.62956 16.0845,0.85662 3.08873,7.61646 -19.96121,23.71239 -19.96121,23.71239 l -50.47329,33.60679 z"
              id="path2647"
              sodipodi:nodetypes="ccsccc" />
        <path style="fill:#e3b68d;fill-opacity:1;stroke:none;stroke-width:0.467704px;stroke-linecap:butt;stroke-linejoin:miter;stroke-opacity:1"
              d="m 127.01124,192.00184 61.60199,-37.37443 c 0,0 10.73668,-6.17337 16.57445,1.41907 6.50292,8.45751 -33.04197,23.39658 -33.04197,23.39658 l -44.00164,18.27329 z"
              id="path2649"
              sodipodi:nodetypes="ccsccc" />
        <path style="fill:#f0c195;fill-opacity:1;stroke:none;stroke-width:0.467704px;stroke-linecap:butt;stroke-linejoin:miter;stroke-opacity:1"
              d="m 132.98572,196.38773 57.06788,-22.41321 c 0,0 16.78443,-6.84994 17.19862,4.42568 0.33464,9.11005 -20.37858,11.28015 -20.37858,11.28015 l -51.52919,10.56432 z"
              id="path2651"
              sodipodi:nodetypes="ccsccc" />
        <path style="fill:#f0c195;fill-opacity:1;stroke:none;stroke-width:0.467704px;stroke-linecap:butt;stroke-linejoin:miter;stroke-opacity:1"
              d="m 135.34445,200.24467 46.3588,-7.73106 c 0,0 24.17018,-3.46817 22.74088,5.3005 -1.42927,8.76869 -26.25879,8.23072 -26.25879,8.23072 l -34.57043,-0.093 z"
              id="path2653" />
    </g>
    <g inkscape:groupmode="layer"
       id="layer2"
       inkscape:label="Layer 2"
       style="display:inline">
        <path style="fill:#ffffff;stroke:none;stroke-width:0.467704px;stroke-linecap:butt;stroke-linejoin:miter;stroke-opacity:1"
              d="m 75.177641,208.37037 c 0,0 -2.168735,-24.72679 15.006264,-50.75404 13.520615,-20.48933 12.171975,-30.50345 10.615075,-33.11456 -2.221876,-3.72637 -16.053913,0.50986 -16.053913,0.50986 0,0 10.244651,-20.95829 23.989223,-15.56558 13.74457,5.39273 7.85612,35.61928 7.85612,35.61928 0,0 -2.2017,34.93486 25.82324,54.89002 13.32223,9.48607 17.3242,9.46166 17.3242,9.46166 z"
              id="path93"
              sodipodi:nodetypes="csscscscc" />
        <path style="fill:#ffffff;stroke:none;stroke-width:0.467704px;stroke-linecap:butt;stroke-linejoin:miter;stroke-opacity:1"
              d="m 98.089461,96.447619 6.484889,7.307181 6.32196,-7.584816 c 0,0 -6.27474,-8.176951 -12.806849,0.277635 z"
              id="path1741"
              sodipodi:nodetypes="cccc" />
    </g>
</svg>